<?xml version="1.0" encoding="utf-8"?>
<!-- Generator: Adobe Illustrator 15.0.0, SVG Export Plug-In . SVG Version: 6.00 Build 0)  -->
<!DOCTYPE svg PUBLIC "-//W3C//DTD SVG 1.1 Tiny//EN" "http://www.w3.org/Graphics/SVG/1.1/DTD/svg11-tiny.dtd">
<svg version="1.1" baseProfile="tiny" id="Isolation_Mode"
	 xmlns="http://www.w3.org/2000/svg" xmlns:xlink="http://www.w3.org/1999/xlink" x="0px" y="0px" width="730px" height="117.757px"
	 viewBox="0 0 730 117.757" xml:space="preserve">
<path fill="#FFC000" d="M622.477,53.248c-2.617,0.139-5.219,0.571-7.768,1.185c-2.549,0.615-5.047,1.444-7.432,2.532
	c-2.384,1.083-4.67,2.398-6.713,4.035c-2.05,1.627-3.864,3.547-5.324,5.713c-1.465,2.162-2.563,4.563-3.289,7.065
	c-0.746,2.505-1.092,5.115-1.148,7.726c-0.076,2.604,0.076,5.24,0.563,7.795c0.472,2.563,1.242,5.072,2.37,7.418
	c2.232,4.707,5.96,8.632,10.413,11.309c4.456,2.688,9.516,4.326,14.66,5.063c1.283,0.174,2.597,0.318,3.862,0.307
	c1.302-0.023,2.569-0.182,3.845-0.426c2.541-0.496,5.01-1.357,7.341-2.496c2.334-1.131,4.539-2.521,6.613-4.086
	c2.062-1.586,3.977-3.354,5.795-5.213c0.092-0.092,0.21-0.137,0.328-0.139l35.978-0.13l-0.458,0.224
	c0.838-1.103,1.65-2.264,2.42-3.438c0.394-0.584,0.762-1.185,1.137-1.778c0.381-0.593,0.724-1.207,1.088-1.81
	c0.366-0.601,0.69-1.226,1.036-1.839c0.349-0.611,0.667-1.239,0.984-1.867c0.319-0.626,0.646-1.248,0.933-1.891
	c0.291-0.641,0.602-1.271,0.877-1.916l0.805-1.945c0.273-0.648,0.483-1.316,0.729-1.975c0.246-0.66,0.47-1.321,0.657-1.996
	c0.189-0.672,0.413-1.338,0.584-2.018l0.469-2.041c0.183-0.678,0.236-1.375,0.357-2.064c0.104-0.688,0.229-1.375,0.256-2.068
	l0.146-2.08l0.19,0.479l-8.604-8.566l0.457,0.199c-3.599-0.146-7.167-0.417-10.737-0.78c-3.567-0.364-7.13-0.834-10.671-1.47
	c-3.537-0.641-7.063-1.423-10.505-2.598c-0.855-0.304-1.716-0.609-2.553-0.985c-0.844-0.355-1.672-0.762-2.479-1.229
	c-0.399-0.237-0.808-0.461-1.187-0.749c-0.389-0.267-0.771-0.543-1.124-0.875c-0.741-0.602-1.36-1.4-1.874-2.268
	c-0.204-0.345-0.091-0.791,0.256-0.994l0.031-0.019l0.023-0.013c0.737-0.387,1.44-0.707,2.181-1.011
	c0.73-0.304,1.474-0.577,2.223-0.831c0.75-0.247,1.509-0.479,2.275-0.674c0.766-0.201,1.541-0.374,2.319-0.511
	c0.781-0.148,1.569-0.251,2.361-0.33c0.396-0.057,0.797-0.055,1.194-0.082c0.396-0.019,0.795-0.051,1.196-0.033l1.198,0.021
	c0.4,0.023,0.8,0.069,1.199,0.104c0.4,0.029,0.798,0.076,1.193,0.159l1.188,0.214l-0.586,1.476c-1.282-0.734-2.639-1.43-3.987-2.096
	c-1.353-0.672-2.724-1.306-4.104-1.921c-1.383-0.609-2.772-1.204-4.178-1.76c-1.401-0.563-2.814-1.1-4.239-1.604
	c-5.688-2.034-11.528-3.652-17.464-4.724c-5.935-1.072-11.968-1.605-17.975-1.38l-2.25,0.106l-2.241,0.199
	c-0.748,0.05-1.489,0.174-2.232,0.271c-0.742,0.11-1.49,0.178-2.224,0.336l-2.21,0.413c-0.735,0.145-1.457,0.345-2.188,0.513
	c-1.466,0.315-2.879,0.818-4.317,1.229c-0.357,0.103-0.729-0.004-0.982-0.245c-3.467-3.332-7.481-6.308-11.596-8.969l-1.54-1.017
	l-1.585-0.948l-3.177-1.888c-2.174-1.155-4.331-2.347-6.545-3.431l-3.353-1.558c-1.124-0.508-2.222-1.075-3.378-1.504
	c-2.295-0.9-4.563-1.872-6.882-2.713l-7.012-2.363c-2.368-0.69-4.757-1.316-7.133-1.978l-1.785-0.488
	c-0.597-0.159-1.203-0.264-1.807-0.399l-3.621-0.768l-3.622-0.769c-1.202-0.286-2.438-0.396-3.652-0.601l-7.322-1.103
	c-2.455-0.262-4.92-0.452-7.378-0.681l-3.69-0.329c-1.229-0.11-2.467-0.092-3.701-0.146L496.99,6.51
	c-0.607-0.013-1.257-0.046-1.83-0.044l-1.862,0.044l-3.723,0.088c-2.479,0.073-4.969,0.09-7.442,0.205l-7.393,0.496l-3.696,0.247
	c-1.231,0.088-2.461,0.249-3.693,0.37l-7.383,0.783c-2.463,0.246-4.905,0.667-7.357,0.992c-2.447,0.37-4.91,0.643-7.348,1.094
	l-7.314,1.276c-2.445,0.395-4.862,0.942-7.291,1.426c-2.421,0.516-4.861,0.948-7.271,1.534l-7.233,1.683
	c-2.412,0.565-4.803,1.223-7.2,1.83c-2.404,0.599-4.79,1.264-7.171,1.944c-2.383,0.674-4.771,1.329-7.136,2.069
	c-4.744,1.422-9.465,2.929-14.146,4.536c-4.687,1.588-9.353,3.3-13.906,5.134l-0.013,0.006c-0.114,0.046-0.232,0.071-0.352,0.08
	l-38.018,2.479l1.083-1.156l0.005,6.131l-1.513-1.109c3.44-1.063,6.885-1.976,10.403-2.746c0.882-0.182,1.763-0.368,2.655-0.52
	c0.886-0.169,1.79-0.292,2.692-0.416l1.369-0.146l1.396-0.079c0.466-0.025,0.958,0.014,1.435,0.019
	c0.482,0.017,1.009,0.126,1.508,0.194c0.597,0.082,1.014,0.63,0.933,1.227c-0.025,0.188-0.098,0.36-0.204,0.503l-0.053,0.072
	c-0.348,0.463-0.674,0.856-1.022,1.265c-0.348,0.399-0.7,0.797-1.066,1.176c-0.356,0.39-0.738,0.756-1.114,1.126
	c-0.369,0.377-0.775,0.717-1.162,1.074c-0.383,0.362-0.807,0.683-1.212,1.021c-0.402,0.344-0.832,0.653-1.261,0.965
	c-0.424,0.315-0.855,0.626-1.309,0.904c-0.453,0.278-0.883,0.592-1.357,0.839l-1.405,0.765c-0.479,0.233-0.977,0.439-1.464,0.661
	c-0.481,0.234-0.996,0.397-1.505,0.569c-0.514,0.159-1.007,0.379-1.542,0.477l-1.58,0.362c-0.53,0.101-1.074,0.137-1.611,0.207
	l-0.807,0.091c-0.27,0.012-0.543,0.002-0.813,0.004l-1.627-0.011l1.211-1.183c0.063,1.221,0.188,2.503,0.328,3.755
	c0.143,1.26,0.32,2.516,0.511,3.77c0.392,2.507,0.885,4.999,1.472,7.466c1.173,4.938,2.765,9.771,4.812,14.392
	c0.535,1.143,1.055,2.297,1.653,3.405c0.563,1.13,1.21,2.212,1.837,3.304c0.671,1.063,1.33,2.137,2.07,3.151
	c0.699,1.046,1.5,2.013,2.276,2.997c0.817,0.949,1.63,1.904,2.523,2.781c0.429,0.455,0.873,0.896,1.344,1.308
	c0.467,0.415,0.914,0.853,1.395,1.25c0.974,0.782,1.937,1.578,2.981,2.263c1.002,0.748,2.109,1.327,3.169,1.983l-1.485,1.487
	c-1.316-2.551-2.255-5.123-3.017-7.81c-0.753-2.675-1.242-5.43-1.445-8.215c-0.179-2.786-0.067-5.606,0.44-8.374
	c0.521-2.761,1.428-5.459,2.715-7.966c2.573-5.017,6.615-9.19,11.281-12.231c4.718-3.054,10.327-4.706,15.933-4.787
	c5.613-0.09,11.199,1.3,16.158,3.868c4.941,2.57,9.395,6.336,12.217,11.29c0.716,1.225,1.278,2.543,1.737,3.895
	c0.189,0.689,0.432,1.365,0.54,2.078l0.202,1.072l0.129,1.01c0.349,2.754,0.444,5.522,0.337,8.287
	c-0.215,5.521-1.3,11.06-3.597,16.162c-2.277,5.076-6.013,9.687-10.955,12.483c-4.92,2.845-10.706,3.771-16.19,3.59l-32.533-0.229
	l-32.535-0.231l-32.532-0.063l-260.282-0.438l130.145-0.727c21.691-0.129,43.382-0.223,65.076-0.256l65.081-0.158l32.542-0.069
	l32.538,0.103l32.538,0.103c2.684,0.063,5.301-0.091,7.871-0.626c2.563-0.527,5.038-1.426,7.293-2.719
	c4.53-2.578,7.973-6.809,10.115-11.594c2.155-4.805,3.198-10.104,3.396-15.406c0.099-2.653,0.002-5.322-0.332-7.947l-0.134-1.01
	l-0.179-0.924c-0.095-0.633-0.313-1.236-0.48-1.854c-0.416-1.212-0.924-2.399-1.576-3.517c-2.571-4.508-6.733-8.053-11.383-10.458
	c-4.666-2.409-9.926-3.706-15.166-3.614c-5.236,0.086-10.433,1.624-14.825,4.477c-4.394,2.874-8.133,6.768-10.515,11.418
	c-1.187,2.318-2.022,4.813-2.503,7.379c-0.468,2.57-0.571,5.209-0.4,7.832c0.196,2.623,0.66,5.231,1.381,7.776
	c0.714,2.524,1.661,5.071,2.836,7.338l0.037,0.071c0.275,0.527,0.069,1.184-0.461,1.456c-0.347,0.179-0.749,0.149-1.061-0.037
	c-1.125-0.688-2.297-1.31-3.36-2.097c-1.105-0.725-2.125-1.563-3.154-2.389c-0.509-0.418-0.982-0.879-1.475-1.314
	c-0.497-0.436-0.964-0.897-1.417-1.377c-0.941-0.922-1.797-1.922-2.653-2.918c-0.814-1.027-1.655-2.043-2.386-3.131
	c-0.773-1.06-1.46-2.174-2.16-3.281c-0.654-1.133-1.327-2.256-1.912-3.424c-0.621-1.148-1.16-2.338-1.714-3.52
	c-2.12-4.768-3.757-9.729-4.966-14.779c-0.604-2.525-1.114-5.076-1.519-7.641c-0.198-1.286-0.38-2.57-0.529-3.864
	c-0.146-1.299-0.275-2.573-0.346-3.917c-0.032-0.618,0.443-1.147,1.063-1.181h0.058h0.091l1.437,0.004
	c0.239-0.002,0.479,0.007,0.719,0l0.714-0.086c0.476-0.064,0.955-0.092,1.428-0.182l1.407-0.327
	c0.475-0.083,0.921-0.288,1.382-0.429c0.458-0.155,0.919-0.301,1.357-0.517c0.442-0.201,0.892-0.388,1.328-0.601l1.286-0.703
	c0.432-0.225,0.83-0.52,1.248-0.774c0.419-0.254,0.816-0.544,1.21-0.838c0.396-0.289,0.797-0.577,1.171-0.899
	c0.377-0.316,0.771-0.613,1.129-0.953c0.362-0.337,0.742-0.652,1.086-1.007c0.351-0.349,0.708-0.69,1.04-1.055
	c0.343-0.355,0.669-0.726,0.991-1.097c0.315-0.368,0.64-0.764,0.904-1.117l0.674,1.8c-0.381-0.036-0.726-0.126-1.132-0.138
	c-0.41,0-0.805-0.038-1.227-0.013l-1.264,0.071l-1.278,0.14c-0.857,0.121-1.714,0.236-2.572,0.402
	c-0.859,0.146-1.715,0.33-2.572,0.508c-3.421,0.75-6.845,1.667-10.192,2.694l-0.011,0.004c-0.613,0.188-1.264-0.157-1.452-0.771
	c-0.035-0.112-0.051-0.231-0.052-0.343l0.005-6.131c-0.001-0.613,0.48-1.117,1.084-1.157l38.02-2.428l-0.361,0.084
	c4.66-1.869,9.324-3.569,14.049-5.166c4.715-1.611,9.463-3.12,14.234-4.544c2.376-0.742,4.777-1.396,7.176-2.071
	c2.395-0.681,4.795-1.346,7.212-1.946c2.415-0.605,4.814-1.263,7.239-1.828l7.278-1.683c2.421-0.584,4.875-1.017,7.311-1.532
	c2.442-0.483,4.874-1.031,7.333-1.423l7.361-1.274c2.449-0.45,4.928-0.721,7.393-1.091c2.471-0.324,4.927-0.745,7.405-0.988
	l7.435-0.778c1.238-0.121,2.476-0.28,3.72-0.368l3.737-0.245l7.474-0.489c2.487-0.113,4.967-0.126,7.45-0.194l3.724-0.084
	l1.862-0.042c0.669-0.002,1.26,0.033,1.893,0.046l7.485,0.227c1.247,0.056,2.496,0.041,3.74,0.152l3.729,0.337
	c2.485,0.236,4.977,0.431,7.456,0.699l7.408,1.124c1.229,0.211,2.479,0.324,3.693,0.613l3.666,0.784l3.665,0.781
	c0.607,0.138,1.225,0.245,1.828,0.406l1.808,0.498c2.406,0.672,4.824,1.31,7.221,2.013l7.104,2.403
	c2.349,0.856,4.646,1.846,6.975,2.761c1.173,0.438,2.286,1.015,3.425,1.53l3.4,1.586c2.243,1.104,4.436,2.315,6.642,3.493
	l3.229,1.924l1.609,0.967l1.564,1.04c4.202,2.752,8.208,5.723,11.893,9.291l-0.982-0.243c1.485-0.419,2.95-0.931,4.463-1.249
	c0.753-0.172,1.5-0.373,2.258-0.521l2.277-0.417c0.756-0.156,1.525-0.224,2.289-0.336c0.766-0.095,1.526-0.22,2.296-0.269
	l2.306-0.194l2.312-0.099c6.157-0.207,12.315,0.364,18.35,1.481c6.038,1.114,11.959,2.782,17.719,4.867
	c1.442,0.517,2.872,1.067,4.29,1.645c1.422,0.567,2.827,1.177,4.229,1.8c1.396,0.63,2.783,1.277,4.154,1.964
	c1.375,0.688,2.726,1.387,4.08,2.17c0.384,0.22,0.517,0.71,0.293,1.095c-0.173,0.3-0.513,0.446-0.837,0.388l-0.042-0.007
	l-1.094-0.199c-0.363-0.079-0.729-0.127-1.103-0.152c-0.37-0.033-0.74-0.08-1.111-0.103l-1.119-0.023
	c-0.372-0.021-0.747,0.013-1.12,0.027c-0.374,0.023-0.749,0.02-1.121,0.071c-0.746,0.073-1.49,0.165-2.231,0.302
	c-0.741,0.128-1.479,0.289-2.208,0.479c-0.731,0.181-1.455,0.4-2.175,0.633c-0.718,0.242-1.429,0.498-2.127,0.785
	c-0.692,0.28-1.397,0.603-2.031,0.931l0.312-1.027c0.403,0.661,0.874,1.311,1.523,1.838c0.297,0.286,0.638,0.531,0.987,0.772
	c0.329,0.257,0.706,0.466,1.072,0.686c0.738,0.432,1.517,0.818,2.315,1.16c0.792,0.36,1.619,0.657,2.44,0.952
	c3.321,1.148,6.789,1.94,10.276,2.583c3.491,0.641,7.021,1.122,10.558,1.499c3.537,0.375,7.1,0.658,10.642,0.816h0.008
	c0.175,0.006,0.333,0.081,0.448,0.196l8.565,8.604l0.021,0.021c0.125,0.125,0.182,0.295,0.171,0.458l-0.16,2.164
	c-0.029,0.725-0.16,1.434-0.271,2.146c-0.128,0.709-0.189,1.432-0.378,2.127l-0.493,2.103c-0.18,0.698-0.407,1.379-0.607,2.067
	c-0.193,0.692-0.428,1.371-0.682,2.043c-0.253,0.67-0.475,1.354-0.753,2.014l-0.829,1.982c-0.284,0.657-0.604,1.299-0.902,1.946
	c-0.294,0.651-0.627,1.285-0.956,1.922c-0.323,0.638-0.649,1.271-1.01,1.894c-0.352,0.621-0.685,1.254-1.059,1.861
	c-0.372,0.61-0.724,1.233-1.111,1.834c-0.385,0.604-0.76,1.211-1.163,1.801c-0.788,1.197-1.606,2.354-2.491,3.51
	c-0.111,0.145-0.28,0.222-0.45,0.222h-0.009l-35.976-0.128l0.329-0.143c-1.863,1.879-3.826,3.662-5.938,5.265
	c-2.128,1.578-4.392,2.981-6.787,4.123c-2.393,1.146-4.927,2.013-7.543,2.505c-1.302,0.239-2.646,0.396-3.969,0.41
	c-1.356,0.002-2.662-0.156-3.975-0.344c-5.228-0.784-10.346-2.479-14.862-5.252c-4.518-2.758-8.29-6.789-10.527-11.596
	c-1.13-2.395-1.893-4.947-2.351-7.543c-0.097-0.654-0.234-1.302-0.291-1.959l-0.186-1.976c-0.036-1.31-0.126-2.627-0.038-3.945
	c0.075-2.633,0.445-5.269,1.218-7.791c0.753-2.526,1.879-4.944,3.374-7.116c1.488-2.175,3.336-4.096,5.404-5.718
	c2.068-1.634,4.376-2.936,6.773-4.006c2.398-1.073,4.909-1.886,7.465-2.484C617.252,53.782,619.855,53.367,622.477,53.248"/>
<g>
	<path fill="#FFC000" d="M324.963,73.882c-1.877,1.076-3.938,1.825-6.072,2.264c-2.14,0.445-4.319,0.574-6.553,0.521l-27.088-0.086
		l-27.088-0.086l-27.093,0.059l-54.181,0.132c-18.061,0.027-36.119,0.105-54.178,0.213L14.361,77.503l216.691,0.364l27.084,0.053
		l27.086,0.193l27.085,0.191c4.566,0.149,9.383-0.62,13.479-2.989c3.185-1.802,5.759-4.513,7.643-7.604h-1.985
		C329.756,70.226,327.584,72.391,324.963,73.882z"/>
</g>
<g>
	<path fill="#FFC000" d="M330.848,84.433c-1.238,0.71-2.596,1.203-4.003,1.492c-1.41,0.294-2.847,0.379-4.32,0.344l-17.858-0.056
		l-17.858-0.057l-17.861,0.038l-35.719,0.087c-11.907,0.018-23.812,0.069-35.717,0.14l-71.429,0.399l142.855,0.239l17.855,0.035
		l17.857,0.128l17.856,0.126c3.01,0.099,6.186-0.408,8.886-1.971c2.1-1.188,3.797-2.976,5.039-5.014h-1.309
		C334.008,82.023,332.576,83.451,330.848,84.433z"/>
</g>
<g>
	<path fill="#FFC000" d="M322.738,50.221c-1.262,0.723-2.647,1.227-4.082,1.521c-1.438,0.299-2.903,0.386-4.405,0.351l-18.209-0.058
		l-18.209-0.058l-18.212,0.04L223.2,52.106c-12.141,0.018-24.279,0.071-36.419,0.143l-72.833,0.406L259.61,52.9l18.207,0.036
		l18.208,0.13l18.207,0.129c3.069,0.1,6.307-0.417,9.061-2.01c2.141-1.211,3.872-3.033,5.138-5.112h-1.334
		C325.96,47.763,324.5,49.219,322.738,50.221z"/>
</g>
<g>
	<path fill="#FFC000" d="M324.588,41.731c-1.073,0.615-2.252,1.043-3.472,1.294c-1.224,0.254-2.47,0.329-3.747,0.298l-15.491-0.049
		l-15.49-0.049l-15.493,0.034l-30.984,0.076c-10.328,0.015-20.655,0.06-30.982,0.122l-61.959,0.346l123.916,0.208l15.489,0.03
		l15.489,0.11l15.488,0.11c2.611,0.085,5.366-0.354,7.708-1.709c1.821-1.03,3.293-2.581,4.371-4.349h-1.135
		C327.329,39.641,326.087,40.879,324.588,41.731z"/>
</g>
<path fill="#FFC000" d="M407.52,30.079c7.282-2.409,14.651-4.557,22.061-6.56c3.703-1.009,7.421-1.959,11.146-2.883
	c3.729-0.92,7.467-1.806,11.221-2.613c3.755-0.802,7.518-1.574,11.296-2.271c3.772-0.718,7.565-1.339,11.365-1.926
	c3.804-0.566,7.615-1.079,11.443-1.478c3.826-0.427,7.67-0.705,11.521-0.908c3.853-0.161,7.717-0.224,11.583-0.029
	c1.935,0.044,3.862,0.253,5.797,0.402l2.892,0.366l0.725,0.092l0.734,0.128l1.415,0.255c1.89,0.35,3.774,0.647,5.661,1.043
	l5.667,1.32c3.734,1.001,7.457,2.032,11.104,3.315c0.912,0.313,1.838,0.595,2.739,0.936l2.706,1.034l2.705,1.036l2.664,1.143
	l2.661,1.141l2.62,1.239c0.872,0.418,1.75,0.817,2.614,1.249l2.574,1.329c3.438,1.763,6.779,3.713,10.049,5.78
	c3.275,2.072,6.438,4.249,9.513,6.722l0.038,0.031c0.453,0.364,0.523,1.027,0.16,1.479l-0.038,0.046
	c-0.315,0.348-0.467,0.397-0.654,0.536l-0.28,0.186l-0.26,0.126c-0.344,0.155-0.695,0.352-1.036,0.469
	c-0.681,0.214-1.365,0.507-2.045,0.649l-2.041,0.491l-2.04,0.342c-1.357,0.259-2.72,0.376-4.08,0.522l-2.041,0.212l-2.038,0.119
	c-1.358,0.073-2.72,0.172-4.078,0.226l-4.07,0.076c-2.719,0.09-5.428,0.008-8.141-0.021c-1.354-0.027-2.711-0.021-4.063-0.075
	l-4.062-0.17c-2.704-0.129-5.413-0.188-8.111-0.397l-8.101-0.55c-2.701-0.174-5.39-0.476-8.085-0.708l-8.079-0.745l-8.063-0.892
	l-8.063-0.892l-8.046-1.017l-8.044-1.02c-2.683-0.331-5.354-0.741-8.027-1.129l-16.043-2.35h-0.007
	c-0.152-0.023-0.261-0.166-0.235-0.318c0.006-0.046,0.022-0.09,0.051-0.124l10.954-15.222L454.84,35.366l-0.193-0.44l16.09,1.94
	c5.358,0.672,10.732,1.212,16.1,1.827l8.05,0.892l8.063,0.765l8.061,0.766l8.072,0.621c2.689,0.188,5.379,0.45,8.071,0.58
	l8.074,0.478c2.691,0.194,5.387,0.24,8.077,0.354l4.039,0.15c1.35,0.047,2.693,0.032,4.038,0.053
	c2.691,0.017,5.385,0.084,8.068-0.019l4.03-0.097c1.34-0.059,2.675-0.163,4.013-0.241l2.006-0.127l1.989-0.22
	c1.324-0.148,2.656-0.269,3.952-0.523l1.952-0.337l1.897-0.467c0.644-0.138,1.204-0.396,1.813-0.582
	c0.297-0.104,0.532-0.251,0.806-0.37l0.197-0.092l0.141-0.099c0.089-0.051,0.234-0.172,0.15-0.073l0.159,1.557
	c-2.914-2.321-6.087-4.491-9.303-6.5c-3.229-2.002-6.519-3.921-9.89-5.686l-2.53-1.322c-0.848-0.429-1.712-0.827-2.568-1.243
	l-2.572-1.233l-2.617-1.138l-2.618-1.139l-2.66-1.034l-2.662-1.032c-0.888-0.341-1.798-0.623-2.694-0.936
	c-3.583-1.283-7.253-2.318-10.918-3.321l-5.53-1.32c-1.862-0.4-3.766-0.71-5.646-1.07l-1.413-0.263l-0.681-0.12l-0.703-0.094
	l-2.813-0.37c-1.892-0.155-3.775-0.371-5.677-0.423c-3.793-0.223-7.604-0.141-11.414-0.059c-3.812,0.144-7.621,0.361-11.427,0.726
	c-3.805,0.337-7.603,0.789-11.393,1.294c-3.789,0.525-7.574,1.086-11.345,1.743c-3.774,0.635-7.536,1.348-11.292,2.093
	c-7.512,1.501-15,3.129-22.445,4.954c-3.723,0.908-7.438,1.853-11.141,2.843C414.899,27.994,411.197,28.996,407.52,30.079"/>
<path fill="#FFC000" d="M584.44,40.804c-0.061,4.55-0.271,9.063-0.593,13.585c-0.324,4.518-0.771,9.03-1.429,13.524
	c-0.317,2.248-0.71,4.486-1.162,6.721c-0.226,1.115-0.479,2.228-0.752,3.337c-0.287,1.106-0.563,2.216-0.916,3.31
	c-0.326,1.1-0.716,2.186-1.131,3.264c-0.229,0.531-0.436,1.072-0.678,1.604c-0.266,0.521-0.508,1.055-0.786,1.566
	c-0.584,1.022-1.213,2.037-2.041,2.941l-0.63,0.668c-0.229,0.211-0.488,0.395-0.732,0.594c-0.461,0.424-1.091,0.662-1.649,0.972
	c-0.061,0.028-0.118,0.047-0.181,0.053l-0.066,0.007c-6.454,0.479-12.896,0.786-19.35,0.991c-6.451,0.208-12.905,0.281-19.358,0.22
	c-3.229-0.025-6.455-0.104-9.684-0.222c-3.226-0.11-6.447-0.278-9.672-0.493c-3.221-0.214-6.438-0.501-9.648-0.834l-4.813-0.584
	c-1.598-0.244-3.2-0.445-4.793-0.729c-1.59-0.289-3.188-0.531-4.766-0.893l-2.375-0.498l-2.354-0.595
	c-1.578-0.36-3.112-0.888-4.666-1.342c-0.77-0.255-1.524-0.552-2.289-0.824l-1.141-0.417l-1.112-0.494
	c-2.978-1.268-5.873-2.888-8.211-5.193l-6.76-6.916c-2.266-2.291-4.569-4.543-6.769-6.91c-2.165-2.368-4.343-4.859-5.559-7.896
	c-0.604-1.507-0.907-3.137-0.875-4.757c0.021-1.622,0.313-3.226,0.73-4.782c0.855-3.117,2.188-6.068,3.568-8.976
	c-1.349,2.922-2.646,5.89-3.466,9.003c-0.4,1.557-0.674,3.151-0.674,4.755c-0.014,1.603,0.304,3.2,0.916,4.676
	c1.226,2.975,3.406,5.422,5.593,7.758c2.214,2.332,4.544,4.561,6.835,6.826l6.832,6.836c2.284,2.207,5.141,3.77,8.088,4.982
	l1.104,0.477l1.132,0.399c0.759,0.26,1.505,0.543,2.269,0.784c1.545,0.435,3.066,0.939,4.64,1.279l2.34,0.563l2.359,0.472
	c1.569,0.338,3.162,0.563,4.744,0.83c1.585,0.264,3.186,0.442,4.772,0.672l4.793,0.525c3.201,0.296,6.406,0.545,9.619,0.727
	c3.211,0.176,6.424,0.307,9.641,0.383c3.215,0.078,6.435,0.121,9.65,0.107c6.435-0.007,12.869-0.15,19.299-0.43
	c6.426-0.275,12.859-0.657,19.255-1.205l-0.247,0.061c0.412-0.258,0.874-0.4,1.241-0.762c0.188-0.158,0.394-0.3,0.578-0.475
	l0.521-0.568c0.69-0.77,1.25-1.688,1.772-2.624c0.251-0.479,0.473-0.978,0.711-1.463c0.223-0.498,0.415-1.013,0.624-1.519
	c0.382-1.029,0.744-2.071,1.047-3.139c0.328-1.055,0.585-2.141,0.853-3.217c0.252-1.084,0.489-2.173,0.696-3.27
	c0.419-2.191,0.781-4.397,1.07-6.619c0.596-4.438,0.986-8.908,1.262-13.388c0.27-4.477,0.429-8.977,0.438-13.445v-0.011
	c0.001-0.645,0.521-1.165,1.167-1.165c0.644,0.002,1.164,0.523,1.162,1.168v0.013H584.44z"/>
</svg>
